<svg width="48" height="48" viewBox="0 0 48 48" fill="none" xmlns="http://www.w3.org/2000/svg">
<rect width="48" height="48" rx="24" fill="#FFB700"/>
<path fill-rule="evenodd" clip-rule="evenodd" d="M15.9719 14.8185C15.8956 14.8541 15.8256 14.9021 15.7649 14.9605C15.6769 15.0555 15.5879 15.2575 15.5879 15.3615C15.5879 15.4955 18.5199 27.6015 18.5869 27.7465C18.7199 28.0305 18.6469 28.0095 21.4969 28.5805C22.9129 28.8635 24.0759 29.0995 24.0809 29.1045C24.0869 29.1095 24.0619 29.1645 24.0249 29.2265C23.9803 29.3007 23.9512 29.3831 23.9391 29.4689C23.9271 29.5546 23.9325 29.6419 23.9549 29.7255C23.9889 29.8565 24.1369 30.0165 25.3329 31.2165C26.0689 31.9555 26.7099 32.5805 26.7559 32.6055C26.9007 32.6792 27.0676 32.6974 27.2249 32.6565C27.3589 32.6215 27.6409 32.3485 30.3819 29.6115C32.0379 27.9585 33.4129 26.5675 33.4379 26.5215C33.5118 26.3767 33.5297 26.2096 33.4879 26.0525C33.4539 25.9215 33.3069 25.7625 32.1109 24.5615C31.3739 23.8225 30.7269 23.1935 30.6719 23.1645C30.5209 23.0855 30.2239 23.0955 30.0709 23.1845C30.0029 23.2255 29.9419 23.2545 29.9369 23.2485C29.9319 23.2435 29.6959 22.0805 29.4129 20.6645C28.8429 17.8185 28.8659 17.8965 28.5819 17.7625C28.5029 17.7245 25.9409 17.0915 22.8879 16.3555C19.8359 15.6195 17.1009 14.9585 16.8099 14.8865C16.2109 14.7385 16.1559 14.7335 15.9719 14.8185ZM23.0669 17.6865C25.6499 18.3095 27.7659 18.8235 27.7699 18.8295C28.1435 20.6524 28.5051 22.4778 28.8549 24.3055C28.8549 24.3975 25.2299 28.0225 25.1379 28.0225C25.0769 28.0225 19.6839 26.9545 19.6619 26.9375C19.6559 26.9335 19.1419 24.8175 18.5189 22.2345C18.137 20.6467 17.753 19.0593 17.3669 17.4725C17.3569 17.4355 18.3319 18.3875 19.5329 19.5865L21.7169 21.7675L21.6559 21.8875C21.5029 22.1875 21.4389 22.4895 21.4419 22.9055C21.4439 23.2435 21.4579 23.3475 21.5319 23.5725C21.6529 23.9385 21.8289 24.2225 22.1079 24.5025C22.3879 24.7815 22.6719 24.9575 23.0379 25.0785C23.2689 25.1555 23.3609 25.1665 23.7219 25.1665C24.0819 25.1665 24.1739 25.1555 24.4049 25.0785C24.7719 24.9575 25.0559 24.7815 25.3349 24.5025C25.6139 24.2235 25.7899 23.9395 25.9109 23.5725C25.9879 23.3415 25.9989 23.2495 25.9989 22.8895C25.9989 22.5285 25.9879 22.4365 25.9109 22.2055C25.7986 21.8524 25.6004 21.5328 25.3339 21.2755C24.9429 20.8855 24.5329 20.6845 24.0039 20.6245C23.5539 20.5735 23.0459 20.6545 22.6999 20.8335L22.5999 20.8845L20.4189 18.7005C19.2199 17.4995 18.2679 16.5245 18.3049 16.5345C18.3419 16.5455 20.4849 17.0635 23.0669 17.6865ZM24.1609 21.9505C24.3609 22.0475 24.5629 22.2495 24.6609 22.4495C24.7719 22.6735 24.7719 23.1055 24.6609 23.3305C24.5757 23.507 24.4425 23.656 24.2765 23.7602C24.1105 23.8644 23.9184 23.9197 23.7224 23.9197C23.5264 23.9197 23.3343 23.8644 23.1683 23.7602C23.0023 23.656 22.8691 23.507 22.7839 23.3305C22.6778 23.0838 22.6622 22.8076 22.7399 22.5505C22.8159 22.3225 23.1339 21.9925 23.3549 21.9125C23.5729 21.8335 23.9589 21.8515 24.1609 21.9505ZM31.2049 25.4225L32.0049 26.2225L29.5299 28.6975L27.0549 31.1725L26.2469 30.3645L25.4389 29.5555L27.9049 27.0895C28.7271 26.2613 29.5551 25.439 30.3889 24.6225C30.3979 24.6225 30.7649 24.9825 31.2049 25.4225Z" fill="#1A1A1D"/>
</svg>
