<svg width="71" height="70" viewBox="0 0 71 70" fill="none" xmlns="http://www.w3.org/2000/svg">
<path d="M35.0652 20.6172C26.4232 20.6172 19.2627 27.6542 19.2627 36.4197C19.2627 45.1851 26.2997 52.2221 35.0652 52.2221C43.8306 52.2221 50.8676 45.0616 50.8676 36.4197C50.8676 27.7777 43.7071 20.6172 35.0652 20.6172ZM35.0652 46.5431C29.5096 46.5431 24.9417 41.9752 24.9417 36.4197C24.9417 30.8641 29.5096 26.2962 35.0652 26.2962C40.6207 26.2962 45.1886 30.8641 45.1886 36.4197C45.1886 41.9752 40.6207 46.5431 35.0652 46.5431Z" fill="#F9FAFB"/>
<path d="M51.4848 23.8275C53.4623 23.8275 55.0653 22.2245 55.0653 20.247C55.0653 18.2695 53.4623 16.6665 51.4848 16.6665C49.5073 16.6665 47.9043 18.2695 47.9043 20.247C47.9043 22.2245 49.5073 23.8275 51.4848 23.8275Z" fill="#F9FAFB"/>
<path d="M60.744 10.9875C57.5342 7.65418 52.9663 5.92578 47.7811 5.92578H22.349C11.6082 5.92578 4.44775 13.0863 4.44775 23.827V49.1357C4.44775 54.4443 6.17615 59.0122 9.63294 62.3455C12.9663 65.5554 17.4107 67.1603 22.4724 67.1603H47.6576C52.9663 67.1603 57.4107 65.4319 60.6206 62.3455C63.9539 59.1357 65.6823 54.5678 65.6823 49.2591V23.827C65.6823 18.6418 63.9539 14.1974 60.744 10.9875ZM60.2502 49.2591C60.2502 53.0863 58.8922 56.1727 56.67 58.2715C54.4478 60.3702 51.3613 61.4813 47.6576 61.4813H22.4724C18.7687 61.4813 15.6823 60.3702 13.4601 58.2715C11.2379 56.0492 10.1268 52.9628 10.1268 49.1357V23.827C10.1268 20.1233 11.2379 17.0369 13.4601 14.8147C15.5589 12.7159 18.7687 11.6048 22.4724 11.6048H47.9045C51.6082 11.6048 54.6947 12.7159 56.9169 14.9381C59.0157 17.1603 60.2502 20.2468 60.2502 23.827V49.2591Z" fill="#F9FAFB"/>
</svg>
