<?xml version="1.0" standalone="no"?>
<!DOCTYPE svg PUBLIC "-//W3C//DTD SVG 20010904//EN"
 "http://www.w3.org/TR/2001/REC-SVG-20010904/DTD/svg10.dtd">
<svg version="1.0" xmlns="http://www.w3.org/2000/svg"
 width="432.000000pt" height="450.000000pt" viewBox="0 0 432.000000 450.000000"
 preserveAspectRatio="xMidYMid meet">

<g transform="translate(0.000000,450.000000) scale(0.100000,-0.100000)"
fill="#000000" stroke="none">
<path d="M2878 3994 c-15 -8 -30 -25 -34 -38 -4 -18 -15 -26 -42 -31 -20 -4
-49 -13 -65 -21 -19 -11 -74 -16 -180 -20 -174 -5 -276 -16 -420 -45 -133 -27
-202 -50 -322 -111 -85 -42 -112 -51 -180 -57 -121 -12 -176 -43 -320 -182
-66 -64 -133 -123 -150 -131 -78 -40 -169 -30 -232 25 -29 26 -34 28 -24 10
21 -41 83 -92 118 -99 73 -14 121 14 308 177 121 105 199 154 269 169 82 17
90 8 51 -51 -19 -27 -39 -74 -45 -105 -14 -67 -8 -81 9 -22 7 24 24 62 37 85
67 115 159 111 214 -10 24 -51 25 -86 4 -135 -50 -121 -188 -166 -243 -79 -24
37 -28 20 -6 -23 31 -61 86 -75 153 -41 106 55 153 187 103 296 -17 39 -81
105 -101 105 -6 0 -10 4 -10 10 0 14 64 44 170 79 192 62 378 96 604 107 l129
7 -6 -31 c-4 -18 -1 -44 5 -60 6 -15 14 -45 17 -67 4 -28 12 -41 24 -43 11 -2
28 -13 39 -24 11 -11 26 -17 35 -14 41 16 26 -14 -48 -92 -108 -114 -215 -253
-252 -328 -18 -37 -42 -68 -59 -79 -38 -22 -88 -92 -88 -123 0 -13 -14 -42
-31 -64 -33 -41 -91 -191 -83 -213 3 -7 15 -13 27 -13 12 0 72 -9 132 -21 61
-11 150 -21 199 -21 l89 0 -7 -61 c-3 -34 -6 -77 -6 -95 0 -45 -36 -84 -132
-146 -111 -71 -106 -82 40 -86 109 -3 113 -2 136 23 23 24 24 25 29 5 3 -14
13 -20 31 -20 14 0 29 -1 34 -2 4 -2 10 25 13 58 3 34 15 86 27 115 11 30 33
94 49 143 l28 89 68 17 c49 13 69 15 72 6 1 -6 8 -45 15 -86 7 -41 19 -90 26
-109 8 -18 14 -40 14 -47 0 -8 -40 -44 -89 -80 -97 -72 -112 -91 -84 -112 14
-11 42 -13 121 -8 111 6 137 15 147 46 3 11 11 20 17 20 5 0 8 -6 5 -14 -9
-23 18 -39 54 -31 l32 7 -5 152 c-3 83 -13 201 -23 261 l-18 110 67 67 c141
141 170 311 89 518 -54 138 -216 322 -350 400 -56 33 -60 37 -52 62 17 62 -32
138 -90 138 -14 -1 -38 -7 -53 -16z m234 -251 c189 -99 303 -292 324 -547 7
-83 6 -88 -25 -151 -30 -60 -127 -175 -148 -175 -5 0 -14 26 -21 58 -8 31 -34
122 -58 202 -41 130 -45 151 -39 208 4 34 1 113 -6 175 -12 101 -15 114 -41
138 -31 30 -74 41 -118 33 -16 -4 -36 -4 -45 0 -13 5 -13 10 5 43 11 21 20 48
20 60 0 22 1 22 41 8 22 -8 72 -31 111 -52z m-237 7 c-4 -13 3 -31 20 -55 15
-19 25 -41 22 -50 -8 -20 -56 -30 -78 -16 -10 6 -30 11 -44 11 -14 0 -28 7
-31 15 -4 8 -17 15 -30 15 -21 0 -24 5 -24 36 l0 36 38 -6 c26 -5 47 -1 72 13
48 25 63 26 55 1z m220 -110 c30 -25 19 -92 -27 -161 -57 -87 -195 -220 -276
-268 -88 -52 -106 -55 -110 -17 -3 26 6 38 69 95 141 127 219 208 219 226 0
13 -12 5 -41 -28 l-40 -46 -41 29 c-23 17 -46 30 -52 30 -7 0 -79 -81 -161
-179 -82 -99 -151 -178 -153 -176 -13 13 88 158 225 322 100 121 119 137 172
147 19 3 42 12 50 20 9 8 25 16 36 19 33 9 113 1 130 -13z m13 -358 c-25 -52
-124 -78 -194 -52 l-27 11 95 97 c52 53 103 110 114 127 l19 29 3 -92 c2 -61
-2 -102 -10 -120z m-300 189 c16 -10 -87 -141 -192 -246 -39 -38 -71 -74 -71
-80 0 -6 -12 -26 -27 -45 -25 -31 -28 -32 -28 -13 0 22 42 84 109 159 20 22
70 84 111 137 41 53 77 96 80 96 3 1 11 -3 18 -8z m59 -36 c2 -6 -32 -39 -75
-75 -43 -35 -90 -79 -103 -97 -13 -18 -28 -33 -32 -33 -5 0 2 12 15 28 130
155 165 192 177 190 8 -2 16 -8 18 -13z m-207 -239 c0 -7 7 -19 15 -26 8 -7
15 -22 15 -34 -1 -24 -30 -69 -30 -45 0 12 -2 12 -10 -1 -8 -12 -10 -12 -10 5
0 16 -5 13 -31 -15 -22 -25 -25 -27 -10 -6 12 16 21 42 21 58 0 28 -2 30 -30
26 -35 -5 -30 1 20 30 42 25 50 26 50 8z m105 -132 c-22 -83 -36 -146 -80
-341 -5 -22 -10 -23 -93 -23 -48 0 -132 7 -187 15 -55 8 -104 15 -110 15 -5 0
29 39 76 88 47 48 109 115 138 150 44 52 58 62 84 62 51 0 80 21 98 70 13 35
24 47 55 61 22 9 40 12 42 8 2 -4 -8 -52 -23 -105z m-155 72 c0 -8 -17 -36
-37 -63 -49 -65 -195 -223 -205 -223 -31 0 45 128 82 137 10 3 23 17 28 32 12
31 103 131 120 131 7 0 12 -6 12 -14z m-137 -42 c-1 -16 -5 -45 -10 -64 l-7
-35 -6 49 -5 49 -48 -49 c-44 -44 -47 -46 -33 -17 22 43 83 106 98 100 7 -2
12 -17 11 -33z m-89 -149 c-28 -41 -52 -65 -62 -63 -9 2 -16 6 -16 9 -1 4 26
42 59 84 48 61 61 72 63 56 2 -12 -16 -47 -44 -86z m630 -22 c15 -50 34 -159
28 -164 -7 -6 -93 -29 -108 -29 -10 0 3 67 26 144 21 65 43 85 54 49z m-682
-69 l30 -16 -28 -29 c-29 -30 -40 -34 -62 -20 -11 7 -11 15 2 45 17 41 17 41
58 20z m427 -441 c37 -5 42 -8 37 -27 -3 -12 -6 -36 -6 -53 0 -41 -23 -44 -42
-6 -18 36 -35 40 -49 9 -7 -14 -26 -30 -43 -35 -40 -13 -189 -13 -181 0 4 5
40 32 80 59 41 28 82 61 92 74 18 23 18 23 44 4 14 -11 45 -22 68 -25z m428
29 c18 -2 46 0 62 6 36 13 41 4 41 -74 0 -50 -2 -54 -24 -54 -15 0 -26 7 -29
20 -7 27 -40 25 -52 -2 -14 -32 -66 -47 -165 -47 l-85 0 41 37 c118 106 150
131 164 125 8 -3 30 -8 47 -11z"/>
<path d="M990 2870 c-36 -22 -75 -40 -88 -40 -35 0 -80 -27 -96 -58 -11 -22
-28 -32 -73 -45 -32 -8 -78 -31 -102 -49 -24 -18 -50 -37 -58 -43 -10 -7 -20
-1 -40 25 -47 60 -125 140 -137 139 -6 0 -6 -3 2 -6 14 -6 152 -170 152 -182
0 -18 -15 -20 -34 -4 l-21 18 20 -23 c17 -21 18 -25 5 -35 -9 -7 -14 -19 -12
-29 8 -41 -21 -19 -101 77 -48 58 -87 112 -87 120 0 9 11 27 25 40 13 14 21
25 16 25 -15 0 -51 -47 -51 -66 0 -11 40 -69 90 -129 87 -106 89 -112 90 -161
0 -55 -36 -176 -76 -258 -14 -27 -50 -84 -82 -128 -124 -171 -142 -200 -154
-241 -7 -23 -36 -71 -65 -106 -53 -65 -64 -96 -41 -119 18 -18 43 -15 63 8 23
25 50 27 40 3 -23 -54 -18 -68 40 -120 31 -28 72 -59 91 -69 30 -17 36 -17 44
-4 18 28 10 76 -25 148 -20 40 -35 78 -33 86 2 8 -16 28 -40 46 -79 57 -80
113 -5 221 26 38 77 110 113 161 50 72 73 118 101 201 l37 108 18 -36 c21 -46
29 -40 9 8 -33 79 -10 186 56 261 45 51 138 101 208 111 l44 7 -5 -44 c-7 -61
-32 -96 -75 -104 -43 -8 -118 -77 -128 -117 -11 -41 1 -70 50 -125 25 -27 45
-54 45 -60 0 -20 -43 -63 -59 -59 -14 3 -16 -8 -19 -77 -1 -45 4 -142 12 -216
9 -74 18 -168 22 -208 4 -40 15 -90 25 -110 16 -30 18 -49 13 -112 -8 -96 3
-123 49 -118 28 3 33 7 37 38 6 42 33 48 38 8 5 -43 27 -53 116 -52 87 0 126
14 126 43 0 25 -24 44 -103 82 -37 17 -70 36 -74 41 -3 6 -7 76 -8 157 -2 96
-10 183 -24 255 -12 61 -21 112 -21 114 0 2 16 -10 35 -27 42 -37 146 -91 175
-91 12 0 20 7 20 16 0 21 -72 121 -167 235 -75 89 -81 99 -62 99 6 0 43 15 82
33 40 18 75 33 78 33 6 -1 22 17 95 107 8 9 14 34 14 55 0 31 6 41 40 66 47
35 82 100 85 159 1 23 0 31 -2 17 -8 -48 -58 -134 -95 -164 -37 -29 -38 -29
-59 -10 l-21 19 22 17 c12 10 18 18 14 18 -16 0 -31 -15 -45 -45 -18 -37 -33
-39 -37 -3 -2 14 -10 32 -18 38 -21 18 -17 48 11 82 14 17 24 33 21 35 -3 3
-15 -7 -28 -22 l-24 -27 -54 16 c-29 9 -71 16 -92 16 l-38 0 16 26 c20 29 63
54 97 54 12 0 44 13 69 29 83 53 141 57 204 16 13 -8 24 -12 24 -7 0 17 -79
52 -116 52 -28 0 -58 -11 -104 -40z m-27 -170 c5 -4 -5 -10 -22 -12 -25 -4
-31 -1 -31 14 0 15 5 18 23 13 12 -4 26 -11 30 -15z m-70 -67 c-3 -21 -6 -39
-7 -39 -1 -1 -20 -5 -42 -9 l-41 -6 21 45 c17 38 26 46 48 46 25 0 26 -2 21
-37z m117 -24 c0 -13 -9 -11 -26 5 -8 8 -14 23 -14 33 1 16 3 15 20 -6 11 -13
20 -27 20 -32z m-35 -44 c-3 -14 -7 -36 -10 -49 -4 -19 -13 -25 -42 -28 -21
-3 -39 -4 -41 -2 -2 1 0 23 3 48 7 47 15 53 68 55 24 1 27 -2 22 -24z m121 8
c7 -10 14 -30 14 -45 0 -24 -4 -28 -26 -28 -22 0 -25 3 -20 23 3 12 6 32 6 45
0 27 8 28 26 5z m-320 -53 l-7 -50 51 0 c54 0 55 -2 44 -59 -6 -30 -9 -31 -56
-31 l-50 0 6 45 7 45 -45 0 c-41 0 -46 2 -46 23 0 38 42 76 84 77 17 0 18 -5
12 -50z m269 -67 c-8 -47 -11 -49 -58 -56 l-39 -6 7 42 c10 56 10 57 57 57
l40 0 -7 -37z m-194 -193 c100 -120 129 -158 129 -169 0 -21 -18 -11 -44 24
-15 20 -38 47 -51 61 -13 14 -22 31 -19 38 3 8 -10 12 -41 14 -59 2 -57 -14 5
-41 48 -22 60 -41 26 -43 -14 -2 -14 -1 1 3 12 4 2 11 -32 24 -33 12 -53 15
-60 9 -9 -7 -16 -6 -24 4 -10 11 -9 21 3 45 22 42 21 47 -23 86 -47 43 -94
110 -89 126 2 7 39 -29 82 -79 42 -51 71 -92 64 -92 -14 -1 51 -39 67 -40 6 0
-2 10 -17 23 -43 35 -187 210 -181 220 6 9 106 -96 204 -213z m89 109 c0 -13
-11 -25 -35 -35 -46 -19 -47 -18 -43 14 2 22 9 28 38 33 19 4 36 7 38 8 1 0 2
-8 2 -20z m-204 -133 c-9 -15 -23 -26 -31 -26 -11 0 -9 8 8 34 12 19 26 30 31
26 5 -5 2 -20 -8 -34z m104 -31 c16 -19 0 -19 -26 0 -16 12 -16 14 -3 15 9 0
22 -7 29 -15z m-102 -34 c101 -81 93 -68 113 -189 26 -166 42 -328 34 -354
-12 -38 -36 -58 -71 -58 -45 0 -80 15 -98 42 -17 27 -46 274 -55 465 l-6 132
25 -6 c14 -3 40 -18 58 -32z m191 -68 c41 -49 26 -67 -16 -18 -18 21 -33 42
-33 47 0 18 20 6 49 -29z m-52 13 c4 -7 21 -28 36 -46 l28 -33 24 23 c14 13
26 22 28 19 42 -53 49 -71 35 -86 -14 -13 -20 -12 -57 6 -22 12 -41 26 -41 31
0 6 -6 10 -13 10 -17 0 -89 74 -81 83 12 11 32 8 41 -7z"/>
<path d="M1013 2805 c-3 -9 -3 -19 1 -22 3 -4 6 1 6 10 0 8 6 18 13 20 9 4 9
6 -1 6 -7 1 -15 -6 -19 -14z"/>
<path d="M1135 2799 c-16 -5 -39 -6 -50 -3 -19 5 -19 4 -2 -6 17 -11 66 -8
104 7 16 6 16 4 -2 -67 l-6 -25 15 25 c8 14 15 37 16 53 0 30 -17 34 -75 16z"/>
<path d="M1157 2665 c-20 -19 -32 -35 -26 -35 12 0 72 60 66 66 -2 2 -20 -12
-40 -31z"/>
<path d="M470 2656 c0 -2 8 -10 18 -17 15 -13 16 -12 3 4 -13 16 -21 21 -21
13z"/>
<path d="M1892 2560 c-18 -24 -43 -65 -54 -91 -22 -46 -22 -47 -81 -52 -39 -3
-82 -17 -130 -41 -40 -20 -63 -36 -52 -36 28 0 6 -18 -33 -26 -27 -6 -32 -4
-32 13 0 11 -10 30 -22 43 l-22 23 23 18 c13 11 30 19 39 19 13 0 12 -3 -4
-16 -18 -15 -18 -15 3 -5 31 16 50 14 28 -2 -16 -13 -15 -14 13 -9 18 2 32 6
32 8 0 7 -59 34 -74 34 -8 0 -28 -11 -44 -25 -16 -13 -61 -41 -101 -61 -63
-32 -78 -36 -127 -32 -67 6 -89 25 -115 99 -11 32 -18 44 -19 31 0 -27 25 -90
46 -113 8 -9 35 -22 60 -29 53 -15 106 -4 166 36 l38 24 17 -26 c9 -14 17 -41
17 -59 1 -18 4 -31 9 -28 12 8 8 37 -13 78 -24 47 -24 45 -6 45 22 0 46 -40
46 -75 0 -23 3 -27 10 -15 5 8 10 12 10 8 0 -4 -14 -30 -32 -58 -44 -71 -51
-159 -16 -210 23 -34 90 -80 117 -80 8 0 -6 14 -31 30 -53 35 -68 68 -68 147
0 71 30 133 90 183 58 49 101 68 173 76 50 6 56 5 67 -17 33 -60 17 -226 -29
-318 -24 -47 -84 -101 -114 -102 -12 0 -16 -3 -9 -6 23 -9 100 27 130 62 53
59 80 193 63 308 -6 47 -5 60 6 64 45 18 303 -95 463 -203 298 -200 425 -391
322 -486 -36 -34 -136 -78 -176 -78 -36 0 -59 21 -120 113 -122 182 -373 227
-624 111 -193 -88 -338 -242 -398 -421 -23 -68 -26 -89 -21 -166 4 -78 9 -98
46 -171 47 -97 132 -189 240 -260 99 -66 158 -90 316 -130 411 -102 792 -156
1245 -176 315 -14 486 -12 721 6 112 8 230 16 262 17 41 2 62 8 68 18 5 10 3
66 -5 136 l-13 121 -113 183 c-62 101 -155 250 -206 331 -87 138 -92 148 -82
176 26 67 -32 152 -102 152 -20 0 -35 15 -74 75 -27 41 -52 75 -57 75 -4 0
-31 -9 -59 -20 -28 -11 -52 -20 -54 -20 -2 0 -15 18 -29 39 -14 22 -51 54 -81
73 -58 35 -65 51 -25 56 13 2 35 16 49 31 23 24 25 35 24 112 0 46 -3 90 -7
96 -12 19 -74 43 -111 43 -44 0 -95 -20 -119 -48 -27 -29 -34 -121 -13 -162
26 -53 22 -57 -47 -56 -71 1 -138 -23 -161 -59 -27 -40 -39 -136 -26 -198 6
-31 16 -59 21 -62 5 -4 9 -22 9 -41 0 -20 5 -44 11 -55 8 -15 6 -32 -5 -67 -9
-26 -23 -100 -31 -165 -17 -141 -33 -176 -91 -196 -54 -19 -82 -10 -144 45
-43 40 -57 47 -89 46 -30 -1 -44 5 -66 28 -37 39 -62 38 -111 -4 -45 -38 -134
-192 -134 -230 0 -38 25 -34 127 20 82 44 88 45 98 28 19 -35 107 -113 163
-146 52 -30 64 -33 142 -33 102 0 141 16 216 90 47 46 55 60 88 162 20 62 36
122 36 134 0 35 20 16 43 -41 13 -30 42 -83 65 -117 24 -35 85 -148 137 -252
53 -108 104 -196 118 -207 13 -10 27 -34 31 -51 l6 -33 -223 0 c-556 0 -1052
71 -1487 212 -159 52 -223 84 -295 150 -212 194 -237 516 -55 721 142 160 404
263 597 236 85 -12 141 -37 197 -89 37 -34 96 -116 96 -133 0 -2 -57 -3 -127
-3 -106 1 -140 -3 -198 -21 -218 -68 -353 -259 -269 -377 46 -64 207 -102 323
-77 180 38 330 193 347 356 l6 61 65 12 c242 46 267 200 67 411 -169 179 -474
367 -658 406 -58 12 -61 14 -59 40 1 16 16 51 33 78 42 68 35 97 -8 37z m1474
-501 c-3 -17 -1 -39 5 -50 7 -15 6 -21 -5 -25 -8 -3 -18 -14 -21 -25 -4 -13
-16 -19 -35 -19 -19 0 -31 -6 -35 -19 -7 -24 -38 -32 -75 -20 -36 13 -41 28
-29 75 8 27 8 43 -2 60 -16 31 -9 37 28 24 24 -9 41 -7 84 8 82 29 93 28 85
-9z m-242 -348 c18 -62 19 -71 8 -71 -4 0 -14 26 -21 58 -7 31 -15 64 -18 72
-4 10 -2 12 5 5 6 -5 17 -34 26 -64z m484 3 c31 -52 38 -70 29 -79 -9 -10 -22
2 -59 58 -53 82 -55 87 -29 87 12 0 32 -23 59 -66z m-36 -31 c29 -48 55 -92
58 -98 3 -5 12 -21 21 -35 10 -14 125 -199 258 -412 215 -347 240 -390 231
-413 -10 -25 -21 -29 -52 -17 -13 6 -538 831 -538 846 0 2 8 6 19 9 13 3 18
13 17 38 -1 33 -3 34 -41 36 l-40 1 35 -8 c28 -6 30 -8 10 -9 -14 -1 -32 -6
-40 -11 -12 -8 -8 -10 15 -11 29 -1 30 -1 5 -9 -25 -8 -25 -8 5 -9 l30 -2 -25
-14 c-14 -8 -20 -14 -13 -15 6 0 20 -15 31 -32 10 -18 66 -109 124 -203 58
-93 167 -269 242 -390 75 -121 136 -228 136 -237 0 -13 -8 -18 -27 -18 -16 0
-33 4 -38 8 -6 4 -40 53 -75 110 -36 56 -107 169 -159 250 -52 81 -138 217
-192 302 l-97 154 20 31 21 30 -34 -31 c-59 -55 -114 -76 -199 -77 -101 -1
-188 29 -255 88 l-49 45 45 0 c32 0 55 7 73 21 l27 21 22 -20 c12 -12 39 -28
59 -37 74 -30 228 -10 228 30 0 9 11 27 25 41 l26 26 -21 32 c-11 19 -20 36
-20 39 0 8 51 36 67 37 6 0 36 -39 65 -87z m-120 8 c15 -28 15 -30 -3 -47 -10
-9 -21 -25 -24 -35 -8 -23 -17 -18 -45 21 l-21 30 30 30 c16 17 33 30 38 30 4
0 15 -13 25 -29z m260 -62 c45 -12 68 -49 68 -106 l-1 -38 -24 30 c-14 17 -23
35 -20 42 2 8 -10 15 -33 18 -58 10 -62 16 -7 10 31 -3 45 -2 36 4 -11 7 -10
10 5 13 15 4 12 6 -11 12 -37 9 -74 24 -60 25 6 1 27 -4 47 -10z m-1345 -39
c35 -23 44 -53 32 -117 -23 -121 -97 -205 -226 -256 -184 -72 -413 -15 -413
103 0 60 97 172 185 214 59 28 141 53 213 66 65 12 183 6 209 -10z m1331 13
c-10 -2 -28 -2 -40 0 -13 2 -5 4 17 4 22 1 32 -1 23 -4z m-305 -23 c-14 -14
-46 -16 -50 -3 -2 6 6 13 19 15 28 5 43 -1 31 -12z m-63 -11 c0 -5 -7 -9 -15
-9 -9 0 -12 6 -9 15 6 15 24 11 24 -6z m461 -146 c309 -495 389 -628 389 -645
0 -36 -23 -12 -85 88 -35 54 -138 221 -230 369 -230 370 -211 335 -187 335 15
0 43 -37 113 -147z m-753 57 c15 0 55 -10 87 -21 33 -12 88 -24 121 -26 l62
-6 30 -66 c17 -36 62 -122 100 -191 37 -69 100 -184 139 -255 104 -189 117
-261 52 -284 -43 -15 -74 -14 -108 3 -21 11 -48 57 -121 203 -51 103 -114 220
-140 258 -26 39 -58 98 -71 130 -14 33 -30 60 -38 60 -9 0 -20 -25 -31 -72
-31 -132 -68 -218 -113 -263 -63 -63 -109 -83 -192 -83 -60 -1 -79 4 -133 32
-35 17 -88 56 -118 85 -47 46 -54 57 -54 92 0 21 9 54 20 72 29 47 59 43 132
-18 52 -44 65 -50 104 -50 102 0 136 49 159 227 8 65 19 135 25 155 10 35 13
37 36 28 14 -6 38 -10 52 -10z m443 -27 c7 -16 15 -32 17 -36 5 -11 -38 11
-61 31 -13 12 -15 17 -5 24 22 14 34 9 49 -19z m-47 -22 c12 -10 34 -23 51
-28 25 -8 56 -50 182 -249 335 -528 311 -495 399 -552 l78 -52 -129 0 c-99 0
-132 3 -145 15 -9 8 -43 25 -75 37 -94 36 -97 39 -107 104 -9 57 -95 225 -317
619 -28 50 -50 94 -48 100 4 10 40 22 71 24 11 1 29 -7 40 -18z m756 -721 c0
-15 3 -41 6 -57 5 -26 2 -32 -29 -50 l-34 -21 -54 32 c-43 25 -50 32 -33 34
12 2 24 12 27 24 5 16 12 19 32 15 23 -4 29 0 41 29 17 40 44 36 44 -6z"/>
<path d="M3495 1660 c3 -6 -1 -13 -9 -16 -20 -8 -21 -24 -1 -24 8 0 15 4 15 9
0 5 3 16 6 25 3 9 1 16 -6 16 -6 0 -8 -5 -5 -10z"/>
<path d="M1549 2373 c-12 -16 -12 -17 1 -7 8 6 22 14 30 17 13 5 12 6 -1 6 -9
1 -23 -7 -30 -16z"/>
<path d="M1092 2233 c32 -38 121 -56 210 -42 66 11 155 45 145 56 -4 3 -12 1
-19 -5 -25 -20 -123 -42 -188 -42 -50 0 -78 6 -113 24 -27 13 -42 17 -35 9z"/>
<path d="M611 2169 c-40 -132 -150 -337 -239 -445 -60 -74 -54 -87 8 -17 103
117 218 338 245 471 9 45 1 40 -14 -9z"/>
<path d="M1618 1943 c7 -3 16 -2 19 1 4 3 -2 6 -13 5 -11 0 -14 -3 -6 -6z"/>
</g>
</svg>
