<svg width="62" height="62" viewBox="0 0 62 62" fill="none" xmlns="http://www.w3.org/2000/svg">
<path fill-rule="evenodd" clip-rule="evenodd" d="M30.625 0.376465C13.7129 0.376465 0 14.4312 0 31.7808C0 45.6577 8.77734 57.4155 20.9453 61.5718C22.4766 61.8589 23.0371 60.8882 23.0371 60.0542C23.0371 59.3022 23.0098 57.3335 22.9961 54.7085C14.4785 56.6089 12.6738 50.4976 12.6738 50.4976C11.2793 46.8745 9.26953 45.9038 9.26953 45.9038C6.49414 43.9487 9.47461 43.9897 9.47461 43.9897C12.5508 44.2085 14.1641 47.23 14.1641 47.23C16.8984 52.0288 21.3281 50.6479 23.0781 49.8413C23.3516 47.8179 24.1445 46.4233 25.0195 45.644C18.2246 44.8511 11.0742 42.1577 11.0742 30.1265C11.0742 26.6948 12.2637 23.8921 14.2188 21.7046C13.9043 20.9116 12.8516 17.7124 14.5195 13.3921C14.5195 13.3921 17.0898 12.5444 22.9414 16.605C25.3887 15.9077 28 15.5659 30.6113 15.5522C33.209 15.5659 35.834 15.9077 38.2812 16.605C44.1328 12.5444 46.6895 13.3921 46.6895 13.3921C48.3574 17.7124 47.3047 20.9116 46.9902 21.7046C48.9453 23.9058 50.1348 26.7085 50.1348 30.1265C50.1348 42.1851 42.9707 44.8374 36.1484 45.6167C37.2422 46.5874 38.2266 48.5015 38.2266 51.4272C38.2266 55.6245 38.1855 59.0151 38.1855 60.0405C38.1855 60.8745 38.7324 61.8589 40.291 61.5444C52.4863 57.4019 61.25 45.644 61.25 31.7808C61.25 14.4312 47.5371 0.376465 30.625 0.376465Z" fill="#F9FAFB"/>
</svg>
